<svg width="4304" height="2159" xmlns="http://www.w3.org/2000/svg" xmlns:xlink="http://www.w3.org/1999/xlink" xml:space="preserve" overflow="hidden"><g transform="translate(-36 -146)"><g><path d="M939.5 1238 1420.75 275.5 2691.25 275.5 3172.5 1238 2691.25 2200.5 1420.75 2200.5Z" stroke="#000000" stroke-width="6.875" stroke-linecap="butt" stroke-linejoin="miter" stroke-miterlimit="8" stroke-opacity="1" fill="#A6A6A6" fill-rule="evenodd" fill-opacity="1"/><path d="M1280.5 1236C1280.5 804.389 1630.39 454.5 2062 454.5 2493.61 454.5 2843.5 804.389 2843.5 1236 2843.5 1667.61 2493.61 2017.5 2062 2017.5 1630.39 2017.5 1280.5 1667.61 1280.5 1236Z" stroke="#000000" stroke-width="6.875" stroke-linecap="butt" stroke-linejoin="miter" stroke-miterlimit="8" stroke-opacity="1" fill="#F2F2F2" fill-rule="evenodd" fill-opacity="1"/><path d="M1597.5 1238C1597.5 984.778 1802.55 779.5 2055.5 779.5 2308.45 779.5 2513.5 984.778 2513.5 1238 2513.5 1491.22 2308.45 1696.5 2055.5 1696.5 1802.55 1696.5 1597.5 1491.22 1597.5 1238Z" stroke="#000000" stroke-width="6.875" stroke-linecap="butt" stroke-linejoin="miter" stroke-miterlimit="8" stroke-opacity="1" fill="none" fill-rule="evenodd"/><text fill="#000000" fill-opacity="1" font-family="Aptos,Aptos_MSFontService,sans-serif" font-style="normal" font-variant="normal" font-weight="700" font-stretch="normal" font-size="83" text-anchor="start" direction="ltr" writing-mode="lr-tb" unicode-bidi="normal" text-decoration="none" transform="matrix(1 0 0 1 1854.45 1066)">Functional </text><text fill="#000000" fill-opacity="1" font-family="Aptos,Aptos_MSFontService,sans-serif" font-style="normal" font-variant="normal" font-weight="700" font-stretch="normal" font-size="83" text-anchor="start" direction="ltr" writing-mode="lr-tb" unicode-bidi="normal" text-decoration="none" transform="matrix(1 0 0 1 1964.41 1165)">Core</text><text fill="#000000" fill-opacity="1" font-family="Aptos,Aptos_MSFontService,sans-serif" font-style="normal" font-variant="normal" font-weight="400" font-stretch="normal" font-size="83" text-anchor="start" direction="ltr" writing-mode="lr-tb" unicode-bidi="normal" text-decoration="none" transform="matrix(1 0 0 1 1860.14 1264)">Immutable </text><text fill="#000000" fill-opacity="1" font-family="Aptos,Aptos_MSFontService,sans-serif" font-style="normal" font-variant="normal" font-weight="400" font-stretch="normal" font-size="83" text-anchor="start" direction="ltr" writing-mode="lr-tb" unicode-bidi="normal" text-decoration="none" transform="matrix(1 0 0 1 1764.87 1363)">Domain Model + </text><text fill="#000000" fill-opacity="1" font-family="Aptos,Aptos_MSFontService,sans-serif" font-style="normal" font-variant="normal" font-weight="400" font-stretch="normal" font-size="83" text-anchor="start" direction="ltr" writing-mode="lr-tb" unicode-bidi="normal" text-decoration="none" transform="matrix(1 0 0 1 1788.94 1462)">Pure Functions</text><text fill="#000000" fill-opacity="1" font-family="Aptos,Aptos_MSFontService,sans-serif" font-style="normal" font-variant="normal" font-weight="400" font-stretch="normal" font-size="83" text-anchor="start" direction="ltr" writing-mode="lr-tb" unicode-bidi="normal" text-decoration="none" transform="matrix(0.448247 -0.89391 0.89391 0.448247 1173.29 989)">Driven Ports</text><text fill="#000000" fill-opacity="1" font-family="Aptos,Aptos_MSFontService,sans-serif" font-style="normal" font-variant="normal" font-weight="400" font-stretch="normal" font-size="83" text-anchor="start" direction="ltr" writing-mode="lr-tb" unicode-bidi="normal" text-decoration="none" transform="matrix(-0.445164 -0.895449 0.895449 -0.445164 1347.72 1875)">Driven Ports</text><text fill="#000000" fill-opacity="1" font-family="Aptos,Aptos_MSFontService,sans-serif" font-style="normal" font-variant="normal" font-weight="400" font-stretch="normal" font-size="83" text-anchor="start" direction="ltr" writing-mode="lr-tb" unicode-bidi="normal" text-decoration="none" transform="matrix(0.452541 -0.891744 0.891744 0.452541 2763.59 1963)">Driving Ports</text><path d="M1359.89 1185.82 1361.08 1174.21 1393.5 1177.53C1397.96 1177.98 1401.37 1177.41 1403.74 1175.81 1406.1 1174.2 1407.48 1171.44 1407.88 1167.51 1408.29 1163.56 1407.49 1160.59 1405.49 1158.61 1403.5 1156.63 1400.27 1155.41 1395.81 1154.95L1363.39 1151.64 1364.58 1139.98 1397.28 1143.33C1402.06 1143.82 1406.04 1145.03 1409.21 1146.95 1412.38 1148.88 1414.65 1151.62 1416.01 1155.16 1417.37 1158.71 1417.78 1163.17 1417.23 1168.55 1416.69 1173.87 1415.39 1178.14 1413.33 1181.35 1411.28 1184.56 1408.51 1186.79 1405.01 1188.04 1401.52 1189.28 1397.38 1189.66 1392.59 1189.17Z" fill="#000000" fill-rule="evenodd" fill-opacity="1"/><text fill="#000000" fill-opacity="0" font-family="Arial,Arial_MSFontService,sans-serif" font-size="49.392" direction="ltr" writing-mode="lr-tb" x="1359.89" y="1183.2">U</text><path d="M1383.67 1113.43C1384.02 1111.43 1384.57 1109.51 1385.31 1107.67 1386.05 1105.82 1387.03 1104.21 1388.25 1102.84 1389.47 1101.47 1390.96 1100.46 1392.73 1099.81 1394.49 1099.16 1396.57 1099.06 1398.96 1099.48L1397.21 1109.3C1395.21 1108.94 1393.72 1109.33 1392.72 1110.45 1391.72 1111.58 1391.07 1112.99 1390.77 1114.69 1390.44 1116.53 1390.45 1118.02 1390.79 1119.16 1391.14 1120.31 1391.92 1120.99 1393.14 1121.21 1393.86 1121.34 1394.55 1121.12 1395.22 1120.55 1395.88 1119.98 1396.58 1119.01 1397.3 1117.63 1398.03 1116.25 1398.87 1114.41 1399.83 1112.11 1400.87 1109.69 1402.03 1107.56 1403.32 1105.74 1404.6 1103.91 1406.14 1102.55 1407.92 1101.66 1409.69 1100.77 1411.83 1100.55 1414.33 1100.99 1416.67 1101.41 1418.57 1102.24 1420.03 1103.47 1421.48 1104.7 1422.56 1106.2 1423.28 1107.96 1423.99 1109.72 1424.39 1111.66 1424.48 1113.78 1424.57 1115.89 1424.42 1118.04 1424.03 1120.22 1423.65 1122.38 1423.07 1124.45 1422.3 1126.46 1421.53 1128.46 1420.51 1130.21 1419.24 1131.72 1417.97 1133.22 1416.41 1134.31 1414.56 1135 1412.71 1135.68 1410.53 1135.8 1408.03 1135.35L1409.79 1125.54C1411.97 1125.93 1413.62 1125.44 1414.74 1124.06 1415.87 1122.68 1416.61 1120.97 1416.98 1118.92 1417.34 1116.9 1417.29 1115.27 1416.84 1114.04 1416.39 1112.8 1415.39 1112.05 1413.85 1111.77 1412.39 1111.51 1411.18 1111.98 1410.23 1113.17 1409.27 1114.35 1408.13 1116.53 1406.79 1119.7 1405.64 1122.34 1404.39 1124.67 1403.06 1126.67 1401.73 1128.66 1400.16 1130.13 1398.36 1131.08 1396.56 1132.02 1394.37 1132.26 1391.79 1131.8 1389.77 1131.43 1388.14 1130.66 1386.89 1129.48 1385.65 1128.3 1384.73 1126.85 1384.15 1125.14 1383.56 1123.43 1383.24 1121.56 1383.19 1119.54 1383.14 1117.51 1383.3 1115.47 1383.67 1113.43Z" fill="#000000" fill-rule="evenodd" fill-opacity="1"/><text fill="#000000" fill-opacity="0" font-family="Arial,Arial_MSFontService,sans-serif" font-size="36.3917" direction="ltr" writing-mode="lr-tb" x="1383.18" y="1131.07">s</text><path d="M1400.63 1069.9C1400.03 1072.31 1400.22 1074.45 1401.2 1076.32 1402.18 1078.2 1403.95 1079.53 1406.51 1080.34L1410.64 1063.7C1407.95 1063.11 1405.75 1063.41 1404.05 1064.59 1402.36 1065.77 1401.21 1067.54 1400.63 1069.9ZM1393.39 1068.1C1394.81 1062.38 1397.6 1058.28 1401.77 1055.79 1405.94 1053.31 1411.12 1052.83 1417.3 1054.37 1417.62 1054.45 1418.04 1054.57 1418.57 1054.73 1419.1 1054.89 1419.51 1055.03 1419.78 1055.16L1413.09 1082.1C1414.91 1082.49 1416.68 1082.58 1418.41 1082.35 1420.14 1082.13 1421.64 1081.47 1422.93 1080.37 1424.22 1079.27 1425.14 1077.63 1425.68 1075.45 1426.24 1073.2 1426.2 1071.27 1425.55 1069.66 1424.91 1068.05 1423.62 1066.99 1421.69 1066.49L1424.24 1056.22C1427.19 1057.09 1429.48 1058.53 1431.1 1060.54 1432.72 1062.54 1433.69 1064.97 1434.03 1067.82 1434.36 1070.67 1434.1 1073.84 1433.23 1077.33 1432.17 1081.61 1430.48 1085 1428.17 1087.52 1425.86 1090.03 1423.03 1091.67 1419.67 1092.42 1416.31 1093.17 1412.53 1093.02 1408.33 1091.98 1404.27 1090.97 1400.95 1089.37 1398.37 1087.19 1395.8 1085 1394.07 1082.3 1393.18 1079.09 1392.3 1075.88 1392.37 1072.21 1393.39 1068.1Z" fill="#000000" fill-rule="evenodd" fill-opacity="1"/><text fill="#000000" fill-opacity="0" font-family="Arial,Arial_MSFontService,sans-serif" font-size="39.4003" direction="ltr" writing-mode="lr-tb" x="1392.57" y="1087.97">e</text><path d="M1412.19 1005.52C1413.3 1002.36 1414.83 999.69 1416.77 997.508 1418.71 995.327 1420.98 993.849 1423.59 993.075 1426.2 992.301 1429.08 992.457 1432.25 993.542L1428.8 1003.37C1426.87 1002.75 1425.12 1002.85 1423.56 1003.67 1421.99 1004.5 1420.82 1006.02 1420.04 1008.24 1419.01 1011.17 1419.27 1013.65 1420.83 1015.67 1422.38 1017.69 1424.99 1019.34 1428.66 1020.63 1431.03 1021.46 1433.15 1021.89 1435.02 1021.9 1436.9 1021.91 1438.49 1021.46 1439.8 1020.53 1441.12 1019.6 1442.11 1018.17 1442.79 1016.23 1443.59 1013.96 1443.6 1011.96 1442.83 1010.21 1442.05 1008.46 1440.54 1007.16 1438.29 1006.32L1441.74 996.49C1444.95 997.704 1447.4 999.446 1449.1 1001.72 1450.79 1003.99 1451.76 1006.61 1452 1009.59 1452.24 1012.57 1451.78 1015.71 1450.62 1019.03 1449.4 1022.49 1447.63 1025.41 1445.31 1027.77 1442.99 1030.14 1440.14 1031.65 1436.75 1032.32 1433.37 1033 1429.46 1032.55 1425.02 1030.99 1420.58 1029.43 1417.22 1027.36 1414.92 1024.78 1412.62 1022.2 1411.27 1019.25 1410.87 1015.95 1410.47 1012.64 1410.91 1009.17 1412.19 1005.52Z" fill="#000000" fill-rule="evenodd" fill-opacity="1"/><text fill="#000000" fill-opacity="0" font-family="Arial,Arial_MSFontService,sans-serif" font-size="40.0355" direction="ltr" writing-mode="lr-tb" x="1410.73" y="1027.62">c</text><path d="M1451.76 965.099C1449.54 970.321 1448.46 974.18 1448.52 976.676 1448.58 979.172 1449.68 980.88 1451.81 981.798 1453.35 982.461 1454.7 982.474 1455.85 981.84 1457.01 981.205 1457.91 980.13 1458.56 978.617 1459.36 976.755 1459.62 974.828 1459.33 972.836 1459.04 970.844 1458.48 969.109 1457.64 967.631ZM1429.1 962.401C1430.09 960.093 1431.19 958.067 1432.4 956.322 1433.61 954.576 1434.98 953.206 1436.53 952.21 1438.08 951.213 1439.83 950.681 1441.78 950.611 1443.74 950.542 1445.94 951.03 1448.37 952.077L1472.75 962.574 1468.77 971.806 1463.92 970.068C1465.02 972.366 1465.58 974.727 1465.61 977.151 1465.64 979.576 1465.09 982.116 1463.94 984.772 1463.06 986.831 1461.83 988.584 1460.27 990.029 1458.7 991.474 1456.88 992.404 1454.81 992.819 1452.73 993.234 1450.49 992.923 1448.08 991.887 1444.73 990.445 1442.64 988.353 1441.81 985.611 1440.97 982.869 1441.03 979.562 1441.97 975.689 1442.92 971.817 1444.38 967.464 1446.34 962.632L1444.4 961.799C1442.05 960.784 1440.19 960.654 1438.83 961.409 1437.48 962.164 1436.42 963.435 1435.65 965.222 1434.8 967.182 1434.58 968.996 1434.96 970.662 1435.35 972.328 1436.58 973.61 1438.67 974.508L1434.69 983.739C1431.59 982.404 1429.42 980.67 1428.2 978.537 1426.97 976.405 1426.47 973.97 1426.71 971.234 1426.94 968.497 1427.74 965.553 1429.1 962.401Z" fill="#000000" fill-rule="evenodd" fill-opacity="1"/><text fill="#000000" fill-opacity="0" font-family="Arial,Arial_MSFontService,sans-serif" font-size="42.3923" direction="ltr" writing-mode="lr-tb" x="1426.65" y="987.698">a</text><path d="M1448.29 921.599C1449.21 919.795 1450.29 918.12 1451.54 916.574 1452.79 915.027 1454.2 913.775 1455.77 912.817 1457.33 911.86 1459.06 911.33 1460.93 911.227 1462.8 911.125 1464.82 911.628 1466.99 912.736L1462.44 921.61C1460.64 920.686 1459.09 920.617 1457.81 921.402 1456.53 922.187 1455.49 923.349 1454.71 924.888 1453.86 926.547 1453.43 927.975 1453.42 929.171 1453.42 930.367 1453.97 931.248 1455.07 931.815 1455.72 932.148 1456.45 932.14 1457.25 931.791 1458.05 931.442 1459 930.714 1460.1 929.607 1461.2 928.5 1462.54 926.988 1464.13 925.07 1465.83 923.057 1467.56 921.364 1469.33 919.991 1471.09 918.619 1472.95 917.767 1474.92 917.436 1476.88 917.104 1478.99 917.518 1481.25 918.675 1483.36 919.759 1484.94 921.104 1485.97 922.709 1487 924.314 1487.59 926.063 1487.76 927.956 1487.93 929.848 1487.75 931.819 1487.22 933.868 1486.68 935.917 1485.91 937.927 1484.9 939.899 1483.9 941.847 1482.74 943.667 1481.42 945.357 1480.1 947.048 1478.61 948.426 1476.96 949.492 1475.31 950.557 1473.49 951.147 1471.52 951.26 1469.55 951.374 1467.44 950.852 1465.18 949.694L1469.72 940.821C1471.69 941.831 1473.42 941.842 1474.9 940.853 1476.37 939.865 1477.59 938.445 1478.54 936.593 1479.47 934.765 1479.9 933.196 1479.83 931.884 1479.76 930.572 1479.03 929.559 1477.63 928.845 1476.31 928.167 1475.02 928.257 1473.76 929.115 1472.5 929.973 1470.77 931.72 1468.57 934.357 1466.69 936.55 1464.82 938.408 1462.96 939.93 1461.1 941.453 1459.18 942.401 1457.18 942.774 1455.18 943.147 1453.02 942.737 1450.68 941.542 1448.86 940.606 1447.52 939.39 1446.68 937.896 1445.83 936.401 1445.38 934.751 1445.32 932.943 1445.26 931.136 1445.5 929.257 1446.05 927.305 1446.59 925.352 1447.34 923.45 1448.29 921.599Z" fill="#000000" fill-rule="evenodd" fill-opacity="1"/><text fill="#000000" fill-opacity="0" font-family="Arial,Arial_MSFontService,sans-serif" font-size="40.0614" direction="ltr" writing-mode="lr-tb" x="1445.31" y="946.268">s</text><path d="M1477.24 884.929C1475.96 887.06 1475.52 889.165 1475.91 891.243 1476.3 893.321 1477.6 895.118 1479.81 896.633L1488.63 881.934C1486.23 880.586 1484.04 880.226 1482.07 880.856 1480.1 881.486 1478.49 882.844 1477.24 884.929ZM1470.84 881.091C1473.88 876.041 1477.75 872.937 1482.46 871.779 1487.17 870.621 1492.26 871.683 1497.73 874.964 1498.01 875.131 1498.38 875.368 1498.84 875.676 1499.3 875.984 1499.64 876.238 1499.87 876.438L1485.58 900.241C1487.21 901.154 1488.88 901.755 1490.6 902.045 1492.32 902.335 1493.95 902.143 1495.51 901.469 1497.06 900.795 1498.41 899.496 1499.57 897.574 1500.76 895.581 1501.29 893.722 1501.14 891.996 1501 890.27 1500.07 888.881 1498.37 887.829L1503.82 878.759C1506.39 880.46 1508.15 882.505 1509.12 884.893 1510.08 887.282 1510.3 889.89 1509.79 892.716 1509.27 895.543 1508.09 898.496 1506.24 901.578 1503.97 905.354 1501.37 908.107 1498.42 909.837 1495.48 911.568 1492.29 912.301 1488.86 912.036 1485.42 911.772 1481.85 910.527 1478.15 908.303 1474.56 906.148 1471.85 903.649 1470.03 900.806 1468.2 897.963 1467.34 894.876 1467.43 891.544 1467.52 888.213 1468.66 884.729 1470.84 881.091Z" fill="#000000" fill-rule="evenodd" fill-opacity="1"/><text fill="#000000" fill-opacity="0" font-family="Arial,Arial_MSFontService,sans-serif" font-size="40.7629" direction="ltr" writing-mode="lr-tb" x="1467.42" y="906.994">e</text><path d="M1496.94 841.932 1503.15 833.176 1535.41 856.075 1529.19 864.832ZM1487.3 828.481C1488.44 826.873 1489.72 825.93 1491.12 825.653 1492.53 825.375 1493.85 825.675 1495.08 826.551 1496.3 827.411 1497.01 828.555 1497.22 829.982 1497.43 831.409 1496.97 832.926 1495.83 834.534 1494.69 836.142 1493.41 837.081 1491.99 837.351 1490.57 837.62 1489.26 837.325 1488.05 836.464 1486.81 835.588 1486.09 834.441 1485.89 833.022 1485.69 831.603 1486.16 830.089 1487.3 828.481Z" fill="#000000" fill-rule="evenodd" fill-opacity="1"/><text fill="#000000" fill-opacity="0" font-family="Arial,Arial_MSFontService,sans-serif" font-size="39.2794" direction="ltr" writing-mode="lr-tb" x="1485.85" y="859.922">i</text><path d="M1525.77 802.642C1528.3 799.578 1531.2 798.024 1534.48 797.978 1535.3 797.966 1536.12 798.048 1536.96 798.222L1538.08 798.575 1537.95 798.508C1537.64 796.043 1537.75 793.427 1538.28 790.66 1538.81 787.894 1540.14 785.218 1542.28 782.634 1544.79 779.591 1547.69 778.036 1550.98 777.97 1554.28 777.903 1557.7 779.331 1561.24 782.254L1581.09 798.63 1574.26 806.915 1555.47 791.415C1554.36 790.504 1553.27 789.856 1552.19 789.47 1551.1 789.085 1550.05 789.042 1549.04 789.341 1548.02 789.64 1547.06 790.331 1546.17 791.415 1544.85 793.02 1544.06 794.693 1543.81 796.434 1543.69 797.305 1543.64 798.182 1543.65 799.066L1543.9 801.708 1544.71 802.293 1564.56 818.67 1557.73 826.954 1538.94 811.455C1537.83 810.544 1536.74 809.895 1535.66 809.51 1534.57 809.124 1533.52 809.081 1532.51 809.38 1531.49 809.679 1530.53 810.371 1529.64 811.455 1528.31 813.059 1527.56 814.753 1527.39 816.535 1527.22 818.318 1527.32 820.102 1527.7 821.889L1548.05 838.678 1541.22 846.963 1510.71 821.792 1517.28 813.82 1521.98 817.429C1521.49 815.345 1521.47 813.006 1521.91 810.411 1522.35 807.816 1523.64 805.226 1525.77 802.642Z" fill="#000000" fill-rule="evenodd" fill-opacity="1"/><text fill="#000000" fill-opacity="0" font-family="Arial,Arial_MSFontService,sans-serif" font-size="68.9952" direction="ltr" writing-mode="lr-tb" x="1510.71" y="838.338">m</text><path d="M1579.87 754.644C1578.16 756.371 1577.18 758.328 1576.93 760.517 1576.68 762.705 1576.86 764.639 1577.48 766.317L1585.77 774.537C1587.6 775.141 1589.51 775.329 1591.49 775.101 1593.46 774.874 1595.19 774.012 1596.68 772.515 1598.58 770.597 1599.3 768.397 1598.83 765.915 1598.36 763.434 1596.73 760.804 1593.93 758.026 1590.95 755.077 1588.28 753.363 1585.89 752.886 1583.51 752.408 1581.51 752.994 1579.87 754.644ZM1575.91 747.066C1578.08 744.879 1580.54 743.46 1583.27 742.809 1586.01 742.158 1588.94 742.414 1592.05 743.576 1595.16 744.738 1598.39 746.984 1601.75 750.314 1604.99 753.53 1607.15 756.707 1608.22 759.845 1609.29 762.983 1609.47 765.968 1608.76 768.798 1608.04 771.629 1606.59 774.166 1604.4 776.41 1602.61 778.251 1600.63 779.506 1598.44 780.174 1596.26 780.842 1594.03 780.942 1591.75 780.474L1605.88 794.487 1598.32 802.112 1559.93 764.039 1567.07 756.845 1571.78 760.666C1571.3 758.127 1571.37 755.725 1572 753.458 1572.63 751.192 1573.93 749.061 1575.91 747.066Z" fill="#000000" fill-rule="evenodd" fill-opacity="1"/><text fill="#000000" fill-opacity="0" font-family="Arial,Arial_MSFontService,sans-serif" font-size="59.6534" direction="ltr" writing-mode="lr-tb" x="1559.93" y="794.655">p</text><path d="M1585.05 718.388 1592.99 711.216 1619.89 740.989C1621.28 742.532 1622.52 743.475 1623.59 743.816 1624.66 744.158 1625.97 743.631 1627.51 742.237L1629.35 740.579 1634.97 746.805 1632.9 748.679C1629.91 751.378 1627.28 753.105 1625.02 753.86 1622.75 754.615 1620.62 754.536 1618.63 753.622 1616.64 752.708 1614.56 751.048 1612.38 748.642Z" fill="#000000" fill-rule="evenodd" fill-opacity="1"/><text fill="#000000" fill-opacity="0" font-family="Arial,Arial_MSFontService,sans-serif" font-size="43.1565" direction="ltr" writing-mode="lr-tb" x="1585.05" y="748.978">l</text><path d="M1632.75 706.068C1630.82 707.634 1629.68 709.46 1629.34 711.547 1628.99 713.634 1629.6 715.767 1631.16 717.946L1644.48 707.145C1642.68 705.056 1640.74 703.971 1638.68 703.891 1636.61 703.81 1634.63 704.536 1632.75 706.068ZM1628.05 700.277C1632.62 696.566 1637.32 694.971 1642.15 695.493 1646.97 696.015 1651.39 698.751 1655.41 703.703 1655.61 703.955 1655.88 704.304 1656.21 704.751 1656.53 705.198 1656.77 705.554 1656.92 705.819L1635.36 723.31C1636.57 724.724 1637.94 725.86 1639.45 726.719 1640.97 727.578 1642.57 727.956 1644.26 727.854 1645.95 727.751 1647.67 726.994 1649.41 725.581 1651.22 724.117 1652.35 722.549 1652.8 720.877 1653.25 719.205 1652.86 717.584 1651.62 716.014L1659.83 709.35C1661.67 711.827 1662.63 714.352 1662.72 716.925 1662.8 719.499 1662.12 722.026 1660.67 724.506 1659.23 726.987 1657.11 729.359 1654.31 731.623 1650.9 734.398 1647.51 736.095 1644.15 736.716 1640.79 737.336 1637.54 736.935 1634.4 735.514 1631.27 734.092 1628.34 731.703 1625.61 728.346 1622.98 725.094 1621.28 721.82 1620.54 718.526 1619.8 715.231 1620.04 712.034 1621.27 708.935 1622.49 705.835 1624.75 702.949 1628.05 700.277Z" fill="#000000" fill-rule="evenodd" fill-opacity="1"/><text fill="#000000" fill-opacity="0" font-family="Arial,Arial_MSFontService,sans-serif" font-size="41.6017" direction="ltr" writing-mode="lr-tb" x="1620.12" y="731.798">e</text><path d="M1672.27 667.276C1675.57 665.061 1678.8 664.398 1681.95 665.289 1682.74 665.512 1683.51 665.826 1684.26 666.231L1685.23 666.888 1685.13 666.789C1685.53 664.337 1686.39 661.861 1687.68 659.361 1688.98 656.86 1691.02 654.676 1693.8 652.807 1697.07 650.606 1700.3 649.944 1703.48 650.82 1706.65 651.695 1709.52 654.039 1712.09 657.851L1726.44 679.209 1717.53 685.201 1703.94 664.986C1703.14 663.798 1702.28 662.865 1701.35 662.186 1700.42 661.508 1699.43 661.167 1698.37 661.163 1697.31 661.16 1696.19 661.55 1695.03 662.334 1693.3 663.494 1692.07 664.874 1691.34 666.473 1690.97 667.273 1690.67 668.098 1690.44 668.949L1689.92 671.554 1690.53 672.344 1704.88 693.702 1695.97 699.693 1682.38 679.479C1681.58 678.29 1680.72 677.357 1679.79 676.678 1678.86 676 1677.87 675.659 1676.81 675.656 1675.75 675.652 1674.63 676.042 1673.47 676.826 1671.74 677.987 1670.54 679.396 1669.87 681.055 1669.19 682.714 1668.78 684.454 1668.64 686.275L1683.36 708.172 1674.44 714.163 1652.38 681.335 1660.95 675.57 1664.42 680.368C1664.55 678.232 1665.19 675.983 1666.36 673.622 1667.52 671.26 1669.49 669.145 1672.27 667.276Z" fill="#000000" fill-rule="evenodd" fill-opacity="1"/><text fill="#000000" fill-opacity="0" font-family="Arial,Arial_MSFontService,sans-serif" font-size="63.7173" direction="ltr" writing-mode="lr-tb" x="1652.38" y="706.198">m</text><path d="M1734.69 637.631C1732.51 638.826 1731.07 640.42 1730.36 642.412 1729.65 644.404 1729.86 646.611 1731.01 649.035L1746.04 640.789C1744.64 638.412 1742.93 636.999 1740.91 636.55 1738.9 636.101 1736.82 636.461 1734.69 637.631ZM1731.1 631.093C1736.27 628.26 1741.18 627.532 1745.83 628.908 1750.48 630.284 1754.34 633.768 1757.41 639.358 1757.57 639.643 1757.76 640.034 1758.01 640.533 1758.25 641.031 1758.42 641.424 1758.51 641.71L1734.18 655.062C1735.12 656.671 1736.26 658.033 1737.6 659.149 1738.93 660.265 1740.44 660.924 1742.12 661.126 1743.81 661.328 1745.63 660.889 1747.6 659.811 1749.63 658.693 1751.02 657.352 1751.77 655.788 1752.51 654.224 1752.42 652.559 1751.48 650.793L1760.75 645.706C1762.12 648.471 1762.61 651.128 1762.24 653.675 1761.86 656.223 1760.74 658.587 1758.87 660.768 1757 662.95 1754.49 664.904 1751.34 666.633 1747.48 668.751 1743.84 669.815 1740.42 669.824 1737.01 669.833 1733.88 668.858 1731.05 666.898 1728.22 664.939 1725.77 662.064 1723.69 658.274 1721.67 654.602 1720.6 651.079 1720.45 647.705 1720.31 644.33 1721.12 641.228 1722.88 638.398 1724.64 635.568 1727.38 633.133 1731.1 631.093Z" fill="#000000" fill-rule="evenodd" fill-opacity="1"/><text fill="#000000" fill-opacity="0" font-family="Arial,Arial_MSFontService,sans-serif" font-size="41.5909" direction="ltr" writing-mode="lr-tb" x="1720.44" y="664.625">e</text><path d="M1779.9 606.836C1783.55 605.154 1786.9 604.961 1789.93 606.257 1792.97 607.554 1795.47 610.337 1797.43 614.609L1808.18 637.991 1798.5 642.443 1788.32 620.313C1787.72 619.012 1787.01 617.955 1786.2 617.142 1785.38 616.33 1784.44 615.837 1783.4 615.664 1782.35 615.49 1781.18 615.703 1779.88 616.301 1777.94 617.193 1776.48 618.411 1775.51 619.957 1774.54 621.503 1773.84 623.164 1773.41 624.939L1784.43 648.91 1774.67 653.396 1758.15 617.458 1767.54 613.141 1770.19 618.432C1770.69 616.333 1771.64 614.236 1773.06 612.143 1774.47 610.049 1776.75 608.28 1779.9 606.836Z" fill="#000000" fill-rule="evenodd" fill-opacity="1"/><text fill="#000000" fill-opacity="0" font-family="Arial,Arial_MSFontService,sans-serif" font-size="47.985" direction="ltr" writing-mode="lr-tb" x="1758.15" y="647.398">n</text><path d="M1801.28 588.21 1811.29 584.3 1814.68 592.981 1822.72 589.839 1825.73 597.539 1817.69 600.682 1823.83 616.384C1824.59 618.321 1825.42 619.65 1826.32 620.37 1827.23 621.089 1828.64 621.075 1830.55 620.328L1834.1 618.941 1837.12 626.679 1833.23 628.198C1829.51 629.654 1826.45 630.336 1824.05 630.245 1821.65 630.153 1819.68 629.327 1818.14 627.767 1816.6 626.207 1815.24 623.918 1814.06 620.898L1807.69 604.592 1801.57 606.982 1798.56 599.282 1804.68 596.891Z" fill="#000000" fill-rule="evenodd" fill-opacity="1"/><text fill="#000000" fill-opacity="0" font-family="Arial,Arial_MSFontService,sans-serif" font-size="45.9529" direction="ltr" writing-mode="lr-tb" x="1798.56" y="624.509">t</text><path d="M1861.17 599.225C1855.79 601.016 1852.18 602.758 1850.35 604.453 1848.51 606.148 1847.96 608.099 1848.68 610.308 1849.2 611.9 1850.08 612.919 1851.32 613.366 1852.57 613.812 1853.97 613.779 1855.54 613.266 1857.46 612.636 1859.08 611.553 1860.38 610.018 1861.68 608.483 1862.61 606.914 1863.17 605.31ZM1848.2 580.444C1850.59 579.662 1852.84 579.146 1854.94 578.897 1857.05 578.648 1858.99 578.774 1860.76 579.274 1862.53 579.775 1864.09 580.736 1865.44 582.157 1866.78 583.579 1867.87 585.548 1868.69 588.064L1876.95 613.292 1867.4 616.419 1865.49 611.628C1864.49 613.972 1863.1 615.958 1861.3 617.584 1859.5 619.211 1857.23 620.474 1854.48 621.373 1852.35 622.071 1850.22 622.312 1848.11 622.095 1845.99 621.879 1844.09 621.13 1842.4 619.847 1840.72 618.565 1839.47 616.679 1838.65 614.188 1837.52 610.722 1837.7 607.769 1839.21 605.329 1840.71 602.889 1843.23 600.743 1846.76 598.891 1850.29 597.039 1854.51 595.25 1859.43 593.525L1858.78 591.522C1857.98 589.083 1856.85 587.605 1855.39 587.089 1853.93 586.573 1852.27 586.617 1850.42 587.222 1848.39 587.886 1846.88 588.914 1845.89 590.306 1844.89 591.698 1844.75 593.472 1845.45 595.629L1835.9 598.756C1834.85 595.546 1834.72 592.775 1835.5 590.442 1836.29 588.11 1837.79 586.127 1840 584.494 1842.21 582.861 1844.94 581.511 1848.2 580.444Z" fill="#000000" fill-rule="evenodd" fill-opacity="1"/><text fill="#000000" fill-opacity="0" font-family="Arial,Arial_MSFontService,sans-serif" font-size="43.3994" direction="ltr" writing-mode="lr-tb" x="1835" y="616.747">a</text><path d="M1875.14 563.19 1885.52 560.429 1887.92 569.437 1896.26 567.219 1898.39 575.208 1890.04 577.427 1894.38 593.72C1894.91 595.731 1895.59 597.144 1896.41 597.961 1897.22 598.778 1898.63 598.922 1900.61 598.395L1904.29 597.416 1906.43 605.445 1902.39 606.517C1898.53 607.545 1895.41 607.879 1893.03 607.518 1890.66 607.157 1888.8 606.115 1887.44 604.392 1886.09 602.669 1885 600.24 1884.16 597.107L1879.66 580.188 1873.32 581.875 1871.19 573.885 1877.54 572.198Z" fill="#000000" fill-rule="evenodd" fill-opacity="1"/><text fill="#000000" fill-opacity="0" font-family="Arial,Arial_MSFontService,sans-serif" font-size="47.2291" direction="ltr" writing-mode="lr-tb" x="1871.19" y="601.755">t</text><path d="M1905.29 565.144 1915.77 562.795 1924.42 601.391 1913.94 603.741ZM1907.13 548.7C1909.05 548.269 1910.63 548.42 1911.86 549.155 1913.09 549.89 1913.87 550.995 1914.2 552.472 1914.53 553.922 1914.29 555.248 1913.5 556.451 1912.7 557.654 1911.34 558.472 1909.41 558.903 1907.49 559.335 1905.91 559.176 1904.68 558.428 1903.44 557.681 1902.66 556.582 1902.34 555.132 1902.01 553.655 1902.24 552.322 1903.04 551.132 1903.84 549.942 1905.2 549.132 1907.13 548.7Z" fill="#000000" fill-rule="evenodd" fill-opacity="1"/><text fill="#000000" fill-opacity="0" font-family="Arial,Arial_MSFontService,sans-serif" font-size="55.2798" direction="ltr" writing-mode="lr-tb" x="1902.19" y="596.831">i</text><path d="M1947.53 564.422C1945.27 564.804 1943.58 565.65 1942.48 566.96 1941.37 568.271 1940.7 569.89 1940.48 571.818 1940.26 573.746 1940.34 575.829 1940.71 578.067 1941.08 580.252 1941.69 582.205 1942.52 583.927 1943.36 585.648 1944.52 586.94 1945.99 587.801 1947.47 588.662 1949.34 588.901 1951.6 588.519 1953.92 588.128 1955.65 587.281 1956.78 585.98 1957.92 584.678 1958.61 583.076 1958.85 581.172 1959.09 579.268 1959.02 577.224 1958.66 575.039 1958.28 572.801 1957.66 570.809 1956.81 569.063 1955.95 567.317 1954.77 566.009 1953.27 565.139 1951.76 564.27 1949.85 564.03 1947.53 564.422ZM1946.16 556.269C1950.16 555.595 1953.77 555.8 1957.01 556.883 1960.25 557.967 1962.95 559.882 1965.11 562.627 1967.27 565.372 1968.72 568.903 1969.45 573.219 1970.16 577.454 1969.94 581.204 1968.8 584.466 1967.65 587.729 1965.72 590.397 1963.02 592.47 1960.31 594.543 1956.96 595.917 1952.96 596.591 1949.02 597.257 1945.43 597.054 1942.2 595.983 1938.96 594.913 1936.28 593.023 1934.15 590.313 1932.02 587.604 1930.6 584.131 1929.88 579.895 1929.15 575.579 1929.35 571.772 1930.46 568.474 1931.58 565.176 1933.49 562.483 1936.19 560.397 1938.89 558.31 1942.22 556.935 1946.16 556.269Z" fill="#000000" fill-rule="evenodd" fill-opacity="1"/><text fill="#000000" fill-opacity="0" font-family="Arial,Arial_MSFontService,sans-serif" font-size="41.0925" direction="ltr" writing-mode="lr-tb" x="1929.45" y="591.837">o</text><path d="M2001.56 549.316C2005.57 548.935 2008.79 549.857 2011.23 552.081 2013.66 554.306 2015.1 557.758 2015.55 562.438L2017.99 588.057 2007.38 589.066 2005.07 564.819C2004.93 563.393 2004.61 562.162 2004.11 561.124 2003.6 560.087 2002.88 559.314 2001.95 558.805 2001.02 558.296 1999.84 558.11 1998.42 558.245 1996.29 558.447 1994.52 559.118 1993.09 560.258 1991.67 561.398 1990.46 562.734 1989.47 564.267L1991.96 590.532 1981.27 591.549 1977.53 552.171 1987.82 551.193 1988.58 557.064C1989.73 555.245 1991.33 553.58 1993.35 552.071 1995.38 550.562 1998.12 549.644 2001.56 549.316Z" fill="#000000" fill-rule="evenodd" fill-opacity="1"/><text fill="#000000" fill-opacity="0" font-family="Arial,Arial_MSFontService,sans-serif" font-size="42.3159" direction="ltr" writing-mode="lr-tb" x="1977.53" y="586.259">n</text><path d="M2042.25 546.971C2044.28 546.917 2046.27 547.066 2048.22 547.419 2050.18 547.772 2051.95 548.407 2053.54 549.324 2055.13 550.241 2056.43 551.497 2057.41 553.092 2058.4 554.687 2058.93 556.7 2058.99 559.131L2049.03 559.398C2048.97 557.372 2048.3 555.985 2046.99 555.236 2045.69 554.487 2044.17 554.136 2042.44 554.182 2040.58 554.232 2039.12 554.541 2038.07 555.11 2037.02 555.679 2036.51 556.585 2036.54 557.827 2036.56 558.556 2036.91 559.189 2037.6 559.724 2038.29 560.26 2039.39 560.744 2040.89 561.177 2042.38 561.61 2044.36 562.064 2046.8 562.539 2049.38 563.064 2051.7 563.772 2053.75 564.663 2055.8 565.554 2057.44 566.781 2058.67 568.342 2059.91 569.904 2060.55 571.954 2060.62 574.493 2060.69 576.87 2060.26 578.895 2059.35 580.568 2058.43 582.241 2057.18 583.606 2055.6 584.661 2054.02 585.717 2052.21 586.503 2050.15 587.017 2048.1 587.532 2045.97 587.819 2043.75 587.878 2041.56 587.937 2039.41 587.792 2037.29 587.443 2035.18 587.094 2033.25 586.45 2031.53 585.51 2029.8 584.569 2028.41 583.262 2027.37 581.587 2026.32 579.912 2025.76 577.806 2025.7 575.267L2035.66 575C2035.72 577.214 2036.54 578.733 2038.12 579.556 2039.69 580.378 2041.52 580.762 2043.6 580.706 2045.65 580.651 2047.24 580.277 2048.35 579.585 2049.47 578.893 2050.01 577.764 2049.97 576.197 2049.93 574.712 2049.23 573.623 2047.87 572.929 2046.51 572.236 2044.15 571.556 2040.78 570.889 2037.96 570.289 2035.43 569.54 2033.2 568.64 2030.97 567.74 2029.22 566.503 2027.93 564.929 2026.65 563.356 2025.97 561.259 2025.9 558.639 2025.84 556.586 2026.27 554.832 2027.18 553.375 2028.08 551.918 2029.32 550.73 2030.87 549.81 2032.43 548.89 2034.19 548.2 2036.17 547.742 2038.14 547.284 2040.17 547.027 2042.25 546.971Z" fill="#000000" fill-rule="evenodd" fill-opacity="1"/><text fill="#000000" fill-opacity="0" font-family="Arial,Arial_MSFontService,sans-serif" font-size="40.9306" direction="ltr" writing-mode="lr-tb" x="2025.7" y="582.774">s</text><path d="M2087.94 547.879 2098.67 548.38 2096.82 587.892 2086.09 587.391ZM2094.05 532.504C2096.02 532.596 2097.51 533.159 2098.5 534.193 2099.49 535.226 2099.95 536.499 2099.88 538.01 2099.81 539.495 2099.24 540.712 2098.15 541.662 2097.06 542.612 2095.54 543.041 2093.57 542.949 2091.6 542.857 2090.11 542.287 2089.12 541.24 2088.13 540.193 2087.67 538.927 2087.74 537.443 2087.81 535.931 2088.39 534.707 2089.47 533.771 2090.56 532.834 2092.08 532.412 2094.05 532.504Z" fill="#000000" fill-rule="evenodd" fill-opacity="1"/><text fill="#000000" fill-opacity="0" font-family="Arial,Arial_MSFontService,sans-serif" font-size="55.4001" direction="ltr" writing-mode="lr-tb" x="2086.09" y="580.967">i</text><path d="M2136.11 550.846C2140.12 551.244 2143.1 552.769 2145.07 555.422 2147.03 558.074 2147.78 561.739 2147.31 566.417L2144.77 592.026 2134.16 590.972 2136.57 566.734C2136.71 565.309 2136.63 564.039 2136.34 562.923 2136.04 561.808 2135.48 560.911 2134.67 560.233 2133.85 559.554 2132.73 559.144 2131.31 559.003 2129.19 558.792 2127.31 559.108 2125.7 559.952 2124.08 560.795 2122.63 561.874 2121.36 563.186L2118.75 589.44 2108.07 588.378 2111.98 549.017 2122.26 550.039 2121.88 555.947C2123.37 554.385 2125.25 553.058 2127.53 551.968 2129.81 550.878 2132.67 550.504 2136.11 550.846Z" fill="#000000" fill-rule="evenodd" fill-opacity="1"/><text fill="#000000" fill-opacity="0" font-family="Arial,Arial_MSFontService,sans-serif" font-size="43.0087" direction="ltr" writing-mode="lr-tb" x="2108.07" y="586.65">n</text><path d="M2181.33 548.361 2191.9 550.304 2190.21 559.472 2198.7 561.033 2197.2 569.164 2188.71 567.603 2185.66 584.184C2185.29 586.23 2185.3 587.797 2185.69 588.885 2186.08 589.974 2187.28 590.704 2189.3 591.075L2193.05 591.764 2191.54 599.935 2187.44 599.18C2183.51 598.457 2180.54 597.424 2178.55 596.083 2176.56 594.741 2175.32 593.002 2174.83 590.866 2174.35 588.73 2174.4 586.068 2174.99 582.879L2178.15 565.66 2171.7 564.472 2173.19 556.341 2179.65 557.529Z" fill="#000000" fill-rule="evenodd" fill-opacity="1"/><text fill="#000000" fill-opacity="0" font-family="Arial,Arial_MSFontService,sans-serif" font-size="51.574" direction="ltr" writing-mode="lr-tb" x="2171.7" y="593.488">t</text><path d="M2211.86 548.348 2222.09 550.854 2217.12 571.166C2218.81 569.828 2220.86 568.78 2223.27 568.021 2225.68 567.262 2228.54 567.288 2231.85 568.097 2235.84 569.074 2238.61 570.999 2240.18 573.871 2241.74 576.744 2241.96 580.489 2240.82 585.108L2234.7 610.104 2224.27 607.55 2230.07 583.853C2230.41 582.488 2230.51 581.234 2230.39 580.091 2230.27 578.949 2229.86 577.986 2229.16 577.203 2228.46 576.42 2227.41 575.858 2226.02 575.517 2223.95 575.01 2222.05 575.06 2220.33 575.668 2218.61 576.275 2217.03 577.14 2215.59 578.261L2209.31 603.887 2198.88 601.333Z" fill="#000000" fill-rule="evenodd" fill-opacity="1"/><text fill="#000000" fill-opacity="0" font-family="Arial,Arial_MSFontService,sans-serif" font-size="61.7563" direction="ltr" writing-mode="lr-tb" x="2198.88" y="602.385">h</text><path d="M2270.9 587.087C2268.53 586.326 2266.38 586.372 2264.44 587.225 2262.51 588.078 2261.06 589.753 2260.08 592.25L2276.4 597.501C2277.17 594.853 2277.02 592.641 2275.96 590.867 2274.9 589.092 2273.21 587.832 2270.9 587.087ZM2273.18 579.989C2278.79 581.793 2282.69 584.858 2284.89 589.184 2287.09 593.511 2287.21 598.709 2285.26 604.778 2285.16 605.087 2285.01 605.501 2284.81 606.02 2284.62 606.539 2284.45 606.931 2284.31 607.198L2257.88 598.694C2257.36 600.485 2257.16 602.249 2257.26 603.987 2257.37 605.725 2257.93 607.274 2258.94 608.635 2259.95 609.996 2261.52 611.02 2263.66 611.706 2265.87 612.418 2267.8 612.507 2269.44 611.973 2271.09 611.439 2272.24 610.224 2272.87 608.329L2282.94 611.57C2281.87 614.46 2280.28 616.645 2278.17 618.124 2276.06 619.602 2273.58 620.412 2270.71 620.553 2267.84 620.694 2264.69 620.214 2261.27 619.114 2257.08 617.765 2253.81 615.853 2251.45 613.378 2249.1 610.903 2247.66 607.964 2247.14 604.56 2246.61 601.157 2247.02 597.397 2248.34 593.282 2249.62 589.296 2251.44 586.092 2253.8 583.67 2256.15 581.249 2258.96 579.705 2262.23 579.039 2265.49 578.373 2269.14 578.689 2273.18 579.989Z" fill="#000000" fill-rule="evenodd" fill-opacity="1"/><text fill="#000000" fill-opacity="0" font-family="Arial,Arial_MSFontService,sans-serif" font-size="41.877" direction="ltr" writing-mode="lr-tb" x="2246.92" y="615.343">e</text><path d="M2332.18 602.018C2334.05 602.815 2335.79 603.782 2337.42 604.919 2339.05 606.057 2340.4 607.374 2341.46 608.872 2342.53 610.37 2343.17 612.05 2343.41 613.913 2343.64 615.775 2343.28 617.824 2342.32 620.06L2333.15 616.141C2333.95 614.277 2333.91 612.733 2333.04 611.508 2332.17 610.283 2330.94 609.331 2329.35 608.651 2327.63 607.918 2326.18 607.59 2324.99 607.668 2323.79 607.745 2322.95 608.355 2322.46 609.498 2322.18 610.169 2322.23 610.891 2322.64 611.666 2323.04 612.441 2323.83 613.338 2325.01 614.357 2326.19 615.376 2327.8 616.612 2329.82 618.064 2331.94 619.62 2333.75 621.231 2335.25 622.897 2336.74 624.563 2337.72 626.363 2338.18 628.296 2338.65 630.229 2338.38 632.363 2337.38 634.698 2336.45 636.884 2335.22 638.547 2333.69 639.685 2332.16 640.823 2330.45 641.542 2328.58 641.842 2326.7 642.142 2324.72 642.096 2322.64 641.706 2320.56 641.316 2318.5 640.685 2316.46 639.814 2314.45 638.954 2312.56 637.923 2310.78 636.722 2309 635.521 2307.52 634.132 2306.34 632.556 2305.17 630.981 2304.45 629.214 2304.2 627.255 2303.95 625.297 2304.33 623.151 2305.33 620.815L2314.49 624.735C2313.62 626.772 2313.73 628.493 2314.82 629.899 2315.91 631.305 2317.41 632.417 2319.32 633.234 2321.21 634.042 2322.81 634.364 2324.11 634.201 2325.41 634.039 2326.37 633.237 2326.99 631.796 2327.57 630.43 2327.39 629.149 2326.45 627.952 2325.51 626.755 2323.64 625.151 2320.86 623.138 2318.54 621.412 2316.56 619.676 2314.91 617.928 2313.27 616.181 2312.19 614.324 2311.68 612.357 2311.16 610.39 2311.42 608.202 2312.45 605.792 2313.26 603.904 2314.38 602.487 2315.81 601.543 2317.25 600.598 2318.86 600.032 2320.66 599.846 2322.46 599.66 2324.35 599.771 2326.34 600.179 2328.32 600.587 2330.27 601.2 2332.18 602.018Z" fill="#000000" fill-rule="evenodd" fill-opacity="1"/><text fill="#000000" fill-opacity="0" font-family="Arial,Arial_MSFontService,sans-serif" font-size="42.2784" direction="ltr" writing-mode="lr-tb" x="2304.13" y="636.752">s</text><path d="M2365.11 600.938 2374.5 605.735 2364.98 624.354C2366.93 623.441 2369.17 622.893 2371.69 622.711 2374.21 622.528 2376.99 623.211 2380.02 624.761 2383.67 626.631 2385.93 629.143 2386.79 632.299 2387.65 635.454 2387 639.149 2384.83 643.383L2373.12 666.296 2363.56 661.407 2374.66 639.684C2375.3 638.433 2375.69 637.238 2375.84 636.097 2375.98 634.957 2375.8 633.925 2375.3 633.002 2374.8 632.079 2373.92 631.292 2372.64 630.64 2370.74 629.668 2368.88 629.28 2367.07 629.475 2365.26 629.67 2363.52 630.147 2361.86 630.906L2349.84 654.397 2340.28 649.508Z" fill="#000000" fill-rule="evenodd" fill-opacity="1"/><text fill="#000000" fill-opacity="0" font-family="Arial,Arial_MSFontService,sans-serif" font-size="65.3585" direction="ltr" writing-mode="lr-tb" x="2340.28" y="658.127">h</text><path d="M2413.64 652.232C2411.51 650.946 2409.41 650.496 2407.33 650.881 2405.25 651.265 2403.45 652.56 2401.92 654.766L2416.6 663.633C2417.95 661.233 2418.32 659.047 2417.69 657.076 2417.07 655.105 2415.72 653.49 2413.64 652.232ZM2417.49 645.85C2422.53 648.897 2425.63 652.779 2426.77 657.495 2427.91 662.211 2426.83 667.297 2423.54 672.754 2423.37 673.032 2423.13 673.4 2422.82 673.86 2422.51 674.32 2422.26 674.664 2422.06 674.89L2398.3 660.53C2397.38 662.153 2396.77 663.823 2396.48 665.538 2396.18 667.254 2396.37 668.89 2397.04 670.447 2397.71 672.004 2399 673.362 2400.92 674.522 2402.91 675.724 2404.77 676.255 2406.49 676.115 2408.22 675.974 2409.61 675.056 2410.67 673.359L2419.72 678.83C2418.01 681.396 2415.96 683.156 2413.57 684.11 2411.18 685.064 2408.57 685.279 2405.75 684.755 2402.92 684.232 2399.97 683.041 2396.9 681.182 2393.13 678.904 2390.38 676.289 2388.66 673.339 2386.94 670.389 2386.22 667.197 2386.49 663.765 2386.77 660.332 2388.02 656.766 2390.26 653.066 2392.43 649.482 2394.93 646.783 2397.78 644.969 2400.63 643.155 2403.72 642.3 2407.05 642.404 2410.38 642.507 2413.86 643.656 2417.49 645.85Z" fill="#000000" fill-rule="evenodd" fill-opacity="1"/><text fill="#000000" fill-opacity="0" font-family="Arial,Arial_MSFontService,sans-serif" font-size="42.6383" direction="ltr" writing-mode="lr-tb" x="2386.44" y="679.704">e</text><path d="M2450.47 649.708 2459.31 655.724 2436.75 688.902C2435.58 690.622 2434.96 692.044 2434.88 693.168 2434.8 694.291 2435.62 695.438 2437.34 696.607L2439.39 697.998 2434.67 704.935 2432.36 703.362C2429.03 701.099 2426.73 698.955 2425.46 696.931 2424.19 694.908 2423.76 692.82 2424.18 690.67 2424.6 688.519 2425.72 686.103 2427.54 683.422Z" fill="#000000" fill-rule="evenodd" fill-opacity="1"/><text fill="#000000" fill-opacity="0" font-family="Arial,Arial_MSFontService,sans-serif" font-size="55.2272" direction="ltr" writing-mode="lr-tb" x="2424.03" y="698.031">l</text><path d="M2472.04 664.654 2480.65 670.996 2456.87 703.31C2455.64 704.985 2454.96 706.383 2454.84 707.503 2454.72 708.622 2455.5 709.799 2457.17 711.032L2459.17 712.497 2454.19 719.254 2451.94 717.596C2448.7 715.21 2446.48 712.982 2445.29 710.912 2444.09 708.843 2443.74 706.741 2444.24 704.607 2444.74 702.474 2445.95 700.101 2447.87 697.49Z" fill="#000000" fill-rule="evenodd" fill-opacity="1"/><text fill="#000000" fill-opacity="0" font-family="Arial,Arial_MSFontService,sans-serif" font-size="54.5995" direction="ltr" writing-mode="lr-tb" x="2444.02" y="712.429">l</text><path d="M2499.56 724.304 2498.98 724.208C2496.85 723.936 2495.04 724.016 2493.54 724.448 2492.05 724.881 2490.71 725.768 2489.54 727.108 2488.04 728.814 2487.42 730.726 2487.69 732.843 2487.95 734.961 2489.32 737.107 2491.8 739.281 2493.6 740.866 2495.66 742 2497.98 742.682L2499.55 742.984ZM2518.4 710.863C2517.24 709.848 2516.05 709.347 2514.81 709.36 2513.58 709.374 2512.5 709.909 2511.57 710.965 2510.75 711.899 2510.17 713.254 2509.81 715.029 2509.64 715.916 2509.51 716.945 2509.43 718.116L2509.39 719.119 2511.03 719.443C2512.7 719.717 2514.21 719.733 2515.58 719.491 2516.94 719.249 2518.09 718.59 2519.04 717.513 2519.93 716.498 2520.33 715.389 2520.25 714.188 2520.18 712.987 2519.56 711.879 2518.4 710.863ZM2523.66 704.747C2526.05 706.85 2527.67 709.008 2528.52 711.222 2529.36 713.436 2529.56 715.581 2529.13 717.658 2528.69 719.735 2527.72 721.627 2526.22 723.333 2524.53 725.262 2522.65 726.515 2520.58 727.09 2518.51 727.666 2516.36 727.826 2514.12 727.57L2509.35 726.713 2509.4 741.631 2510.64 741.065C2512.67 739.918 2514.73 738.156 2516.81 735.78L2525.04 742.996C2522.99 745.332 2520.85 747.214 2518.63 748.642 2516.4 750.07 2514.13 751.113 2511.81 751.772L2509.43 752.289 2509.47 765.839 2499.54 757.126 2499.54 752.499 2499.36 752.478C2497.64 752.174 2495.97 751.692 2494.35 751.032 2491.1 749.713 2488.02 747.77 2485.09 745.204 2482.35 742.798 2480.26 740.154 2478.81 737.271 2477.37 734.388 2476.75 731.48 2476.95 728.548 2477.15 725.615 2478.36 722.889 2480.57 720.371 2482.78 717.852 2485.22 716.276 2487.9 715.642 2490.57 715.007 2493.37 714.954 2496.29 715.481L2499.75 716.219 2499.78 715.652C2499.92 714.099 2500.13 712.622 2500.4 711.221 2500.96 708.418 2502.12 706.001 2503.91 703.97 2505.47 702.183 2507.33 700.98 2509.47 700.361 2511.61 699.743 2513.9 699.78 2516.33 700.473 2518.76 701.167 2521.2 702.591 2523.66 704.747Z" fill="#000000" fill-rule="evenodd" fill-opacity="1"/><text fill="#000000" fill-opacity="0" font-family="Arial,Arial_MSFontService,sans-serif" font-size="65.9152" direction="ltr" writing-mode="lr-tb" x="2476.92" y="757.6">&amp;</text><path d="M2560.07 772.483C2558.51 770.799 2556.88 769.854 2555.17 769.646 2553.47 769.439 2551.75 769.771 2550.02 770.643 2548.28 771.515 2546.58 772.722 2544.92 774.266 2543.3 775.773 2541.99 777.349 2541.01 778.995 2540.03 780.64 2539.59 782.316 2539.68 784.02 2539.77 785.725 2540.59 787.419 2542.15 789.103 2543.75 790.826 2545.41 791.806 2547.12 792.042 2548.83 792.279 2550.55 791.975 2552.27 791.132 2554 790.288 2555.67 789.113 2557.3 787.606 2558.96 786.063 2560.29 784.454 2561.28 782.78 2562.27 781.106 2562.71 779.402 2562.61 777.668 2562.52 775.935 2561.67 774.206 2560.07 772.483ZM2566.13 766.86C2568.89 769.831 2570.7 772.968 2571.57 776.27 2572.44 779.571 2572.32 782.879 2571.21 786.193 2570.1 789.506 2567.95 792.652 2564.74 795.628 2561.59 798.55 2558.33 800.426 2554.98 801.256 2551.62 802.086 2548.33 801.939 2545.11 800.814 2541.9 799.69 2538.91 797.642 2536.15 794.671 2533.43 791.739 2531.63 788.627 2530.75 785.335 2529.87 782.042 2529.98 778.762 2531.08 775.496 2532.18 772.23 2534.3 769.136 2537.45 766.214 2540.66 763.237 2543.95 761.31 2547.32 760.433 2550.69 759.556 2553.98 759.675 2557.21 760.79 2560.44 761.905 2563.41 763.929 2566.13 766.86Z" fill="#000000" fill-rule="evenodd" fill-opacity="1"/><text fill="#000000" fill-opacity="0" font-family="Arial,Arial_MSFontService,sans-serif" font-size="41.9308" direction="ltr" writing-mode="lr-tb" x="2530.17" y="796.543">o</text><path d="M2601.15 807.719 2601.67 808.344 2594.7 814.097 2594.05 813.315C2593.04 812.086 2591.96 810.999 2590.81 810.054 2589.66 809.109 2588.45 808.397 2587.16 807.919 2585.87 807.441 2584.48 807.255 2582.99 807.362L2562.71 824.103 2555.87 815.82 2586.38 790.644 2592.93 798.583 2587.78 803.099C2590.27 802.377 2592.65 802.404 2594.94 803.18 2597.23 803.955 2599.3 805.469 2601.15 807.719Z" fill="#000000" fill-rule="evenodd" fill-opacity="1"/><text fill="#000000" fill-opacity="0" font-family="Arial,Arial_MSFontService,sans-serif" font-size="33.4594" direction="ltr" writing-mode="lr-tb" x="2555.87" y="819.921">r</text><path d="M2617.01 828.609C2619 831.309 2620.34 834.076 2621.05 836.909 2621.76 839.742 2621.7 842.453 2620.87 845.042 2620.03 847.63 2618.28 849.927 2615.59 851.932L2609.43 843.539C2611.03 842.295 2611.93 840.795 2612.13 839.038 2612.33 837.281 2611.74 835.456 2610.34 833.561 2608.5 831.057 2606.31 829.877 2603.77 830.019 2601.22 830.162 2598.38 831.385 2595.25 833.688 2593.22 835.176 2591.68 836.689 2590.61 838.227 2589.55 839.764 2589.03 841.337 2589.05 842.945 2589.08 844.553 2589.7 846.184 2590.91 847.839 2592.33 849.777 2593.99 850.919 2595.87 851.264 2597.75 851.609 2599.67 851.092 2601.64 849.712L2607.81 858.105C2604.99 860.072 2602.17 861.114 2599.34 861.232 2596.51 861.35 2593.8 860.669 2591.2 859.19 2588.61 857.711 2586.27 855.556 2584.19 852.726 2582.02 849.765 2580.61 846.66 2579.96 843.411 2579.32 840.162 2579.68 836.95 2581.03 833.775 2582.39 830.6 2584.96 827.621 2588.75 824.838 2592.53 822.054 2596.14 820.441 2599.57 820 2603.01 819.558 2606.2 820.104 2609.15 821.638 2612.11 823.172 2614.73 825.496 2617.01 828.609Z" fill="#000000" fill-rule="evenodd" fill-opacity="1"/><text fill="#000000" fill-opacity="0" font-family="Arial,Arial_MSFontService,sans-serif" font-size="41.3934" direction="ltr" writing-mode="lr-tb" x="2579.65" y="856.071">c</text><path d="M2646.3 844.958 2651.93 853.865 2634.25 865.038C2636.4 865.247 2638.6 865.916 2640.87 867.043 2643.13 868.17 2645.17 870.172 2646.99 873.05 2649.18 876.521 2649.84 879.834 2648.98 882.987 2648.11 886.14 2645.67 888.987 2641.65 891.528L2619.89 905.277 2614.15 896.199 2634.78 883.164C2635.97 882.413 2636.91 881.584 2637.62 880.675 2638.32 879.767 2638.69 878.788 2638.73 877.74 2638.77 876.691 2638.41 875.562 2637.65 874.351 2636.51 872.547 2635.11 871.267 2633.44 870.51 2631.78 869.754 2630.05 869.279 2628.23 869.085L2605.93 883.181 2600.19 874.102Z" fill="#000000" fill-rule="evenodd" fill-opacity="1"/><text fill="#000000" fill-opacity="0" font-family="Arial,Arial_MSFontService,sans-serif" font-size="60.3195" direction="ltr" writing-mode="lr-tb" x="2600.19" y="897.737">h</text><path d="M2661.93 913.8C2660.75 911.611 2659.17 910.152 2657.19 909.425 2655.2 908.698 2652.99 908.896 2650.56 910.019L2658.67 925.12C2661.06 923.744 2662.49 922.049 2662.95 920.035 2663.42 918.021 2663.08 915.943 2661.93 913.8ZM2668.5 910.271C2671.28 915.46 2671.97 920.375 2670.55 925.016 2669.14 929.657 2665.62 933.486 2660 936.504 2659.72 936.658 2659.32 936.854 2658.82 937.092 2658.32 937.33 2657.93 937.496 2657.64 937.589L2644.5 913.134C2642.89 914.064 2641.51 915.192 2640.39 916.519 2639.26 917.845 2638.59 919.349 2638.37 921.03 2638.15 922.71 2638.58 924.538 2639.64 926.514 2640.74 928.56 2642.06 929.963 2643.62 930.721 2645.18 931.479 2646.85 931.397 2648.62 930.474L2653.63 939.792C2650.85 941.131 2648.19 941.602 2645.64 941.205 2643.1 940.809 2640.75 939.666 2638.58 937.777 2636.42 935.889 2634.48 933.362 2632.78 930.196 2630.7 926.317 2629.67 922.669 2629.69 919.254 2629.71 915.838 2630.71 912.723 2632.69 909.909 2634.68 907.095 2637.57 904.664 2641.38 902.618 2645.07 900.636 2648.6 899.59 2651.98 899.478 2655.35 899.367 2658.45 900.204 2661.26 901.989 2664.08 903.774 2666.49 906.534 2668.5 910.271Z" fill="#000000" fill-rule="evenodd" fill-opacity="1"/><text fill="#000000" fill-opacity="0" font-family="Arial,Arial_MSFontService,sans-serif" font-size="41.8728" direction="ltr" writing-mode="lr-tb" x="2629.69" y="936.107">e</text><path d="M2688.77 951.172C2689.61 953.017 2690.25 954.909 2690.68 956.848 2691.12 958.786 2691.22 960.667 2691 962.491 2690.78 964.314 2690.12 965.992 2689.04 967.524 2687.95 969.055 2686.3 970.324 2684.09 971.33L2679.96 962.254C2681.81 961.416 2682.82 960.25 2683 958.758 2683.19 957.265 2682.92 955.732 2682.2 954.158 2681.43 952.46 2680.58 951.238 2679.65 950.49 2678.71 949.742 2677.68 949.625 2676.55 950.139 2675.89 950.441 2675.44 951.014 2675.22 951.858 2674.99 952.702 2674.97 953.899 2675.16 955.447 2675.34 956.996 2675.69 958.989 2676.2 961.426 2676.72 964.008 2676.97 966.418 2676.95 968.654 2676.93 970.89 2676.44 972.879 2675.48 974.621 2674.52 976.363 2672.88 977.759 2670.57 978.81 2668.41 979.794 2666.38 980.19 2664.48 979.999 2662.58 979.808 2660.84 979.19 2659.25 978.146 2657.66 977.102 2656.23 975.734 2654.96 974.042 2653.69 972.351 2652.59 970.496 2651.68 968.479 2650.77 966.487 2650.07 964.448 2649.56 962.362 2649.06 960.275 2648.9 958.253 2649.1 956.296 2649.29 954.338 2649.96 952.552 2651.09 950.938 2652.23 949.323 2653.95 947.991 2656.26 946.94L2660.39 956.016C2658.37 956.932 2657.29 958.277 2657.15 960.049 2657 961.821 2657.36 963.654 2658.22 965.548 2659.07 967.417 2660.03 968.732 2661.11 969.491 2662.18 970.25 2663.43 970.305 2664.85 969.657 2666.21 969.042 2666.94 967.975 2667.05 966.455 2667.16 964.936 2666.87 962.495 2666.17 959.132 2665.62 956.294 2665.33 953.675 2665.29 951.273 2665.25 948.872 2665.71 946.772 2666.66 944.976 2667.61 943.179 2669.27 941.739 2671.66 940.654 2673.53 939.804 2675.31 939.514 2677.01 939.782 2678.7 940.05 2680.27 940.722 2681.73 941.798 2683.18 942.873 2684.5 944.231 2685.69 945.871 2686.88 947.511 2687.91 949.279 2688.77 951.172Z" fill="#000000" fill-rule="evenodd" fill-opacity="1"/><text fill="#000000" fill-opacity="0" font-family="Arial,Arial_MSFontService,sans-serif" font-size="40.3602" direction="ltr" writing-mode="lr-tb" x="2649.02" y="975.001">s</text><path d="M2708.48 975.091 2712.4 985.094 2703.71 988.488 2706.86 996.527 2699.16 999.538 2696.01 991.498 2680.31 997.637C2678.37 998.394 2677.05 999.225 2676.33 1000.13 2675.61 1001.04 2675.62 1002.44 2676.37 1004.36L2677.76 1007.9 2670.02 1010.93 2668.5 1007.04C2667.04 1003.32 2666.36 1000.26 2666.45 997.855 2666.54 995.455 2667.37 993.486 2668.93 991.948 2670.49 990.41 2672.78 989.051 2675.8 987.87L2692.1 981.495 2689.71 975.381 2697.41 972.37 2699.8 978.485Z" fill="#000000" fill-rule="evenodd" fill-opacity="1"/><text fill="#000000" fill-opacity="0" font-family="Arial,Arial_MSFontService,sans-serif" font-size="38.5593" direction="ltr" writing-mode="lr-tb" x="2666.44" y="1006.11">t</text><path d="M2717.79 1026.56 2718.06 1027.33 2709.5 1030.25 2709.18 1029.29C2708.66 1027.78 2708.03 1026.38 2707.29 1025.09 2706.55 1023.8 2705.67 1022.71 2704.63 1021.8 2703.59 1020.9 2702.36 1020.24 2700.93 1019.81L2676.04 1028.31 2672.57 1018.15 2710 1005.37 2713.33 1015.11 2706.91 1017.51C2709.49 1017.72 2711.72 1018.58 2713.58 1020.12 2715.45 1021.65 2716.85 1023.8 2717.79 1026.56Z" fill="#000000" fill-rule="evenodd" fill-opacity="1"/><text fill="#000000" fill-opacity="0" font-family="Arial,Arial_MSFontService,sans-serif" font-size="24.8799" direction="ltr" writing-mode="lr-tb" x="2672.57" y="1027.14">r</text><path d="M2705.41 1062.17C2703.85 1056.71 2702.26 1053.03 2700.65 1051.13 2699.03 1049.23 2697.11 1048.59 2694.87 1049.22 2693.26 1049.67 2692.2 1050.51 2691.7 1051.73 2691.2 1052.95 2691.18 1054.35 2691.62 1055.94 2692.17 1057.89 2693.18 1059.55 2694.66 1060.91 2696.14 1062.28 2697.67 1063.28 2699.24 1063.9ZM2724.73 1050.01C2725.41 1052.43 2725.83 1054.7 2725.98 1056.81 2726.14 1058.93 2725.94 1060.86 2725.36 1062.61 2724.78 1064.36 2723.76 1065.87 2722.28 1067.16 2720.8 1068.44 2718.79 1069.44 2716.24 1070.16L2690.68 1077.33 2687.97 1067.66 2692.83 1065.95C2690.53 1064.86 2688.61 1063.38 2687.06 1061.51 2685.51 1059.64 2684.35 1057.32 2683.57 1054.54 2682.96 1052.38 2682.81 1050.24 2683.12 1048.14 2683.42 1046.03 2684.25 1044.16 2685.61 1042.53 2686.96 1040.91 2688.9 1039.74 2691.42 1039.03 2694.93 1038.04 2697.87 1038.35 2700.25 1039.96 2702.62 1041.57 2704.66 1044.17 2706.36 1047.78 2708.06 1051.39 2709.66 1055.68 2711.18 1060.68L2713.21 1060.11C2715.68 1059.41 2717.2 1058.35 2717.78 1056.91 2718.36 1055.47 2718.39 1053.81 2717.86 1051.94 2717.28 1049.88 2716.32 1048.33 2714.97 1047.28 2713.62 1046.22 2711.86 1046 2709.67 1046.62L2706.96 1036.94C2710.21 1036.03 2712.98 1036.01 2715.28 1036.9 2717.58 1037.78 2719.49 1039.36 2721.03 1041.64 2722.57 1043.92 2723.8 1046.71 2724.73 1050.01Z" fill="#000000" fill-rule="evenodd" fill-opacity="1"/><text fill="#000000" fill-opacity="0" font-family="Arial,Arial_MSFontService,sans-serif" font-size="41.0865" direction="ltr" writing-mode="lr-tb" x="2682.96" y="1072.2">a</text><path d="M2740.81 1077.66 2743.13 1088.15 2734.03 1090.15 2735.89 1098.58 2727.81 1100.37 2725.95 1091.94 2709.49 1095.57C2707.46 1096.02 2706.02 1096.63 2705.17 1097.42 2704.32 1098.2 2704.11 1099.59 2704.55 1101.6L2705.38 1105.32 2697.26 1107.11 2696.36 1103.03C2695.5 1099.13 2695.3 1096 2695.76 1093.64 2696.22 1091.28 2697.35 1089.47 2699.12 1088.19 2700.9 1086.91 2703.38 1085.92 2706.54 1085.22L2723.64 1081.45 2722.22 1075.04 2730.3 1073.26 2731.71 1079.67Z" fill="#000000" fill-rule="evenodd" fill-opacity="1"/><text fill="#000000" fill-opacity="0" font-family="Arial,Arial_MSFontService,sans-serif" font-size="33.8536" direction="ltr" writing-mode="lr-tb" x="2695.52" y="1102.88">t</text><path d="M2737.57 1107.67 2739.47 1118.24 2700.54 1125.24 2698.64 1114.67ZM2753.92 1110.21C2754.27 1112.15 2754.05 1113.72 2753.26 1114.92 2752.48 1116.12 2751.34 1116.85 2749.85 1117.12 2748.39 1117.38 2747.07 1117.09 2745.91 1116.24 2744.74 1115.39 2743.98 1114 2743.63 1112.06 2743.28 1110.12 2743.51 1108.55 2744.31 1107.35 2745.11 1106.15 2746.24 1105.41 2747.7 1105.15 2749.19 1104.88 2750.51 1105.17 2751.67 1106.02 2752.82 1106.87 2753.57 1108.27 2753.92 1110.21Z" fill="#000000" fill-rule="evenodd" fill-opacity="1"/><text fill="#000000" fill-opacity="0" font-family="Arial,Arial_MSFontService,sans-serif" font-size="20.1875" direction="ltr" writing-mode="lr-tb" x="2698.64" y="1122.72">i</text><path d="M2736.49 1149.91C2736.21 1147.63 2735.43 1145.91 2734.17 1144.75 2732.91 1143.59 2731.32 1142.85 2729.4 1142.55 2727.49 1142.24 2725.4 1142.23 2723.15 1142.51 2720.95 1142.79 2718.97 1143.31 2717.22 1144.07 2715.46 1144.84 2714.12 1145.94 2713.2 1147.37 2712.28 1148.81 2711.96 1150.67 2712.24 1152.95 2712.54 1155.28 2713.31 1157.04 2714.56 1158.23 2715.81 1159.42 2717.38 1160.18 2719.28 1160.5 2721.17 1160.82 2723.21 1160.84 2725.41 1160.57 2727.66 1160.29 2729.68 1159.76 2731.46 1158.97 2733.24 1158.19 2734.6 1157.07 2735.53 1155.61 2736.46 1154.14 2736.79 1152.24 2736.49 1149.91ZM2744.7 1148.88C2745.2 1152.9 2744.84 1156.51 2743.62 1159.7 2742.4 1162.89 2740.37 1165.5 2737.54 1167.55 2734.7 1169.59 2731.11 1170.88 2726.77 1171.43 2722.51 1171.96 2718.77 1171.58 2715.56 1170.3 2712.35 1169.01 2709.77 1166.97 2707.81 1164.18 2705.86 1161.39 2704.63 1157.99 2704.12 1153.96 2703.62 1150 2703.98 1146.42 2705.19 1143.23 2706.39 1140.05 2708.4 1137.45 2711.19 1135.43 2713.99 1133.42 2717.52 1132.15 2721.78 1131.62 2726.13 1131.07 2729.92 1131.43 2733.17 1132.68 2736.42 1133.94 2739.03 1135.96 2741 1138.75 2742.97 1141.54 2744.2 1144.91 2744.7 1148.88Z" fill="#000000" fill-rule="evenodd" fill-opacity="1"/><text fill="#000000" fill-opacity="0" font-family="Arial,Arial_MSFontService,sans-serif" font-size="40.2928" direction="ltr" writing-mode="lr-tb" x="2703.9" y="1166.63">o</text><path d="M2749.29 1204.51C2749.5 1208.53 2748.45 1211.71 2746.12 1214.05 2743.79 1216.39 2740.28 1217.68 2735.59 1217.93L2709.89 1219.28 2709.33 1208.64 2733.65 1207.36C2735.08 1207.28 2736.33 1207.01 2737.39 1206.55 2738.44 1206.09 2739.25 1205.41 2739.79 1204.5 2740.34 1203.59 2740.58 1202.42 2740.5 1200.99 2740.39 1198.86 2739.8 1197.06 2738.72 1195.59 2737.64 1194.11 2736.36 1192.85 2734.87 1191.79L2708.52 1193.18 2707.96 1182.45 2747.46 1180.38 2748 1190.7 2742.1 1191.21C2743.87 1192.44 2745.46 1194.1 2746.89 1196.19 2748.31 1198.28 2749.11 1201.05 2749.29 1204.51Z" fill="#000000" fill-rule="evenodd" fill-opacity="1"/><text fill="#000000" fill-opacity="0" font-family="Arial,Arial_MSFontService,sans-serif" font-size="38.905" direction="ltr" writing-mode="lr-tb" x="2707.96" y="1214.42">n</text><path d="M4105.5 1705.75C4105.5 1740.68 3992.23 1769 3852.5 1769 3712.77 1769 3599.5 1740.68 3599.5 1705.75 3599.5 1670.82 3712.77 1642.5 3852.5 1642.5 3992.23 1642.5 4105.5 1670.82 4105.5 1705.75L4105.5 2184.25C4105.5 2219.18 3992.23 2247.5 3852.5 2247.5 3712.77 2247.5 3599.5 2219.18 3599.5 2184.25L3599.5 1705.75" stroke="#000000" stroke-width="6.875" stroke-linecap="butt" stroke-linejoin="miter" stroke-miterlimit="8" stroke-opacity="1" fill="none" fill-rule="evenodd"/><text fill="#000000" fill-opacity="1" font-family="Aptos,Aptos_MSFontService,sans-serif" font-style="normal" font-variant="normal" font-weight="400" font-stretch="normal" font-size="83" text-anchor="start" direction="ltr" writing-mode="lr-tb" unicode-bidi="normal" text-decoration="none" transform="matrix(1 0 0 1 3679.56 2003)">Database</text><path d="M2719.01 2208.89 3197.57 1245.24 3374.68 1333.2 2896.12 2296.85Z" stroke="#000000" stroke-width="6.875" stroke-linecap="butt" stroke-linejoin="miter" stroke-miterlimit="8" stroke-opacity="1" fill="none" fill-rule="nonzero"/><text fill="#000000" fill-opacity="1" font-family="Aptos,Aptos_MSFontService,sans-serif" font-style="normal" font-variant="normal" font-weight="400" font-stretch="normal" font-size="83" text-anchor="start" direction="ltr" writing-mode="lr-tb" unicode-bidi="normal" text-decoration="none" transform="matrix(0.444787 -0.895637 0.895637 0.444787 3007.59 1910)">Adapter</text><path d="M3190.35 1819.15 3549.46 1919.37 3543.6 1940.34 3184.5 1840.12ZM3189.13 1864.01 3135 1815 3206.69 1801.1ZM3544.82 1895.48 3598.95 1944.49 3527.27 1958.39Z" fill="#000000" fill-rule="nonzero" fill-opacity="1"/><path d="M737.684 1141.11 1217.64 178.154 1394.62 266.363 914.661 1229.32Z" stroke="#000000" stroke-width="6.875" stroke-linecap="butt" stroke-linejoin="miter" stroke-miterlimit="8" stroke-opacity="1" fill="none" fill-rule="nonzero"/><text fill="#000000" fill-opacity="1" font-family="Aptos,Aptos_MSFontService,sans-serif" font-style="normal" font-variant="normal" font-weight="400" font-stretch="normal" font-size="83" text-anchor="start" direction="ltr" writing-mode="lr-tb" unicode-bidi="normal" text-decoration="none" transform="matrix(0.446082 -0.894992 0.894992 0.446082 999.707 896)">U/I Adapter</text><path d="M1220.26 2296.74 738.669 1334.6 915.496 1246.09 1397.09 2208.23Z" stroke="#000000" stroke-width="6.875" stroke-linecap="butt" stroke-linejoin="miter" stroke-miterlimit="8" stroke-opacity="1" fill="none" fill-rule="nonzero"/><text fill="#000000" fill-opacity="1" font-family="Aptos,Aptos_MSFontService,sans-serif" font-style="normal" font-variant="normal" font-weight="400" font-stretch="normal" font-size="83" text-anchor="start" direction="ltr" writing-mode="lr-tb" unicode-bidi="normal" text-decoration="none" transform="matrix(-0.4476 -0.894234 0.894234 -0.4476 1198.95 1974)">REST Adapter</text><text fill="#000000" fill-opacity="1" font-family="Aptos,Aptos_MSFontService,sans-serif" font-style="normal" font-variant="normal" font-weight="400" font-stretch="normal" font-size="83" text-anchor="start" direction="ltr" writing-mode="lr-tb" unicode-bidi="normal" text-decoration="none" transform="matrix(-0.460679 -0.887567 0.887567 -0.460679 3005.59 978)">Driving Ports</text><rect x="3254" y="234" width="170" height="154" fill="#D9D9D9" fill-opacity="1"/><text fill="#000000" fill-opacity="1" font-family="Aptos,Aptos_MSFontService,sans-serif" font-style="normal" font-variant="normal" font-weight="400" font-stretch="normal" font-size="83" text-anchor="start" direction="ltr" writing-mode="lr-tb" unicode-bidi="normal" text-decoration="none" transform="matrix(1 0 0 1 3456.75 337)">Technology Free Core</text><rect x="3257" y="422" width="169" height="155" fill="#A6A6A6" fill-opacity="1"/><text fill="#000000" fill-opacity="1" font-family="Aptos,Aptos_MSFontService,sans-serif" font-style="normal" font-variant="normal" font-weight="400" font-stretch="normal" font-size="83" text-anchor="start" direction="ltr" writing-mode="lr-tb" unicode-bidi="normal" text-decoration="none" transform="matrix(1 0 0 1 3459.06 525)">Interface Description</text><rect x="3257.5" y="621.5" width="169" height="244" stroke="#000000" stroke-width="6.875" stroke-linecap="butt" stroke-linejoin="miter" stroke-miterlimit="8" stroke-opacity="1" fill="none"/><text fill="#000000" fill-opacity="1" font-family="Aptos,Aptos_MSFontService,sans-serif" font-style="normal" font-variant="normal" font-weight="400" font-stretch="normal" font-size="83" text-anchor="start" direction="ltr" writing-mode="lr-tb" unicode-bidi="normal" text-decoration="none" transform="matrix(1 0 0 1 3459.06 725)">Technology dependent</text><text fill="#000000" fill-opacity="1" font-family="Aptos,Aptos_MSFontService,sans-serif" font-style="normal" font-variant="normal" font-weight="400" font-stretch="normal" font-size="83" text-anchor="start" direction="ltr" writing-mode="lr-tb" unicode-bidi="normal" text-decoration="none" transform="matrix(1 0 0 1 3459.06 824)">I/O Implementation</text><path d="M54.841 8.55968 416.509 141.493 408.998 161.927 47.3303 28.9939ZM50.0366 53.1835 0 0 72.5688-8.11921ZM413.802 117.303 463.839 170.487 391.27 178.606Z" fill="#000000" fill-rule="nonzero" fill-opacity="1" transform="matrix(-1 0 0 1 979.839 1816)"/><g><g><g><path d="M252.656 376.177 286.344 376.177 286.344 421.094 252.656 421.094Z" fill="#000000" fill-rule="nonzero" fill-opacity="1" transform="matrix(1.00186 0 0 1 40.9999 1742)"/><path d="M252.656 443.552 286.344 443.552 286.344 477.24 252.656 477.24Z" fill="#000000" fill-rule="nonzero" fill-opacity="1" transform="matrix(1.00186 0 0 1 40.9999 1742)"/><path d="M308.802 443.552 471.625 443.552 471.625 477.24 308.802 477.24Z" fill="#000000" fill-rule="nonzero" fill-opacity="1" transform="matrix(1.00186 0 0 1 40.9999 1742)"/><path d="M67.375 443.552 230.198 443.552 230.198 477.24 67.375 477.24Z" fill="#000000" fill-rule="nonzero" fill-opacity="1" transform="matrix(1.00186 0 0 1 40.9999 1742)"/><path d="M429.066 286.344 109.934 286.344C98.8324 286.344 89.8333 295.343 89.8333 306.444L89.8333 356.077C89.8333 367.178 98.8324 376.177 109.934 376.177L429.066 376.177C440.168 376.177 449.167 367.178 449.167 356.077L449.167 306.444C449.167 295.343 440.168 286.344 429.066 286.344ZM145.979 342.49C139.777 342.49 134.75 337.462 134.75 331.26 134.75 325.059 139.777 320.031 145.979 320.031 152.181 320.031 157.208 325.059 157.208 331.26 157.208 337.462 152.181 342.49 145.979 342.49ZM202.125 342.49C195.923 342.49 190.896 337.462 190.896 331.26 190.896 325.059 195.923 320.031 202.125 320.031 208.327 320.031 213.354 325.059 213.354 331.26 213.354 337.462 208.327 342.49 202.125 342.49ZM258.271 342.49C252.069 342.49 247.042 337.462 247.042 331.26 247.042 325.059 252.069 320.031 258.271 320.031 264.473 320.031 269.5 325.059 269.5 331.26 269.5 337.462 264.473 342.49 258.271 342.49Z" fill="#000000" fill-rule="nonzero" fill-opacity="1" transform="matrix(1.00186 0 0 1 40.9999 1742)"/><path d="M429.066 174.052 109.934 174.052C98.8324 174.052 89.8333 183.051 89.8333 194.152L89.8333 243.785C89.8333 254.886 98.8324 263.885 109.934 263.885L429.066 263.885C440.168 263.885 449.167 254.886 449.167 243.785L449.167 194.152C449.167 183.051 440.168 174.052 429.066 174.052ZM145.979 230.198C139.777 230.198 134.75 225.171 134.75 218.969 134.75 212.767 139.777 207.74 145.979 207.74 152.181 207.74 157.208 212.767 157.208 218.969 157.208 225.171 152.181 230.198 145.979 230.198ZM202.125 230.198C195.923 230.198 190.896 225.171 190.896 218.969 190.896 212.767 195.923 207.74 202.125 207.74 208.327 207.74 213.354 212.767 213.354 218.969 213.354 225.171 208.327 230.198 202.125 230.198ZM258.271 230.198C252.069 230.198 247.042 225.171 247.042 218.969 247.042 212.767 252.069 207.74 258.271 207.74 264.473 207.74 269.5 212.767 269.5 218.969 269.5 225.171 264.473 230.198 258.271 230.198Z" fill="#000000" fill-rule="nonzero" fill-opacity="1" transform="matrix(1.00186 0 0 1 40.9999 1742)"/><path d="M429.066 61.7604 109.934 61.7604C98.8324 61.7604 89.8333 70.7595 89.8333 81.8606L89.8333 131.494C89.8333 142.595 98.8324 151.594 109.934 151.594L429.066 151.594C440.168 151.594 449.167 142.595 449.167 131.494L449.167 81.8606C449.167 70.7595 440.168 61.7604 429.066 61.7604ZM145.979 117.906C139.777 117.906 134.75 112.879 134.75 106.677 134.75 100.475 139.777 95.4479 145.979 95.4479 152.181 95.4479 157.208 100.475 157.208 106.677 157.208 112.879 152.181 117.906 145.979 117.906ZM202.125 117.906C195.923 117.906 190.896 112.879 190.896 106.677 190.896 100.475 195.923 95.4479 202.125 95.4479 208.327 95.4479 213.354 100.475 213.354 106.677 213.354 112.879 208.327 117.906 202.125 117.906ZM258.271 117.906C252.069 117.906 247.042 112.879 247.042 106.677 247.042 100.475 252.069 95.4479 258.271 95.4479 264.473 95.4479 269.5 100.475 269.5 106.677 269.5 112.879 264.473 117.906 258.271 117.906Z" fill="#000000" fill-rule="nonzero" fill-opacity="1" transform="matrix(1.00186 0 0 1 40.9999 1742)"/></g></g></g><text fill="#000000" fill-opacity="1" font-family="Aptos,Aptos_MSFontService,sans-serif" font-style="normal" font-variant="normal" font-weight="400" font-stretch="normal" font-size="83" text-anchor="start" direction="ltr" writing-mode="lr-tb" unicode-bidi="normal" text-decoration="none" transform="matrix(0.936289 -0.35123 0.35123 0.936289 593.904 2082)">Requests to</text><text fill="#000000" fill-opacity="1" font-family="Aptos,Aptos_MSFontService,sans-serif" font-style="normal" font-variant="normal" font-weight="400" font-stretch="normal" font-size="83" text-anchor="start" direction="ltr" writing-mode="lr-tb" unicode-bidi="normal" text-decoration="none" transform="matrix(0.936289 -0.35123 0.35123 0.936289 628.675 2175)">our system</text><g><g><g><path d="M115 250.875 115 615.125 585 615.125 585 250.875ZM520.375 286.125C526.865 286.125 532.125 291.385 532.125 297.875 532.125 304.364 526.865 309.625 520.375 309.625 513.886 309.625 508.625 304.364 508.625 297.875 508.625 291.385 513.886 286.125 520.375 286.125ZM479.25 286.125C485.74 286.125 491 291.385 491 297.875 491 304.364 485.74 309.625 479.25 309.625 472.761 309.625 467.5 304.364 467.5 297.875 467.5 291.385 472.761 286.125 479.25 286.125ZM438.125 286.125C444.615 286.125 449.875 291.385 449.875 297.875 449.875 304.364 444.615 309.625 438.125 309.625 431.636 309.625 426.375 304.364 426.375 297.875 426.375 291.385 431.636 286.125 438.125 286.125ZM549.75 579.875 150.25 579.875 150.25 344.875 549.75 344.875Z" fill="#000000" fill-rule="nonzero" fill-opacity="1"/></g></g></g><path d="M683.473 453.769 937.88 620.779 925.933 638.979 671.525 471.969ZM668.678 496.142 632 433 704.52 441.543ZM940.728 596.606 977.406 659.748 904.885 651.205Z" fill="#000000" fill-rule="nonzero" fill-opacity="1"/><text fill="#000000" fill-opacity="1" font-family="Aptos,Aptos_MSFontService,sans-serif" font-style="normal" font-variant="normal" font-weight="400" font-stretch="normal" font-size="83" text-anchor="start" direction="ltr" writing-mode="lr-tb" unicode-bidi="normal" text-decoration="none" transform="matrix(0.961615 0.274403 -0.274403 0.961615 3126.63 1952)">Queries from</text><text fill="#000000" fill-opacity="1" font-family="Aptos,Aptos_MSFontService,sans-serif" font-style="normal" font-variant="normal" font-weight="400" font-stretch="normal" font-size="83" text-anchor="start" direction="ltr" writing-mode="lr-tb" unicode-bidi="normal" text-decoration="none" transform="matrix(0.961615 0.274403 -0.274403 0.961615 3099.46 2047)">out system</text></g></g></svg>